<?xml version="1.0" encoding="utf-8"?>
<!-- Svg Vector Icons : http://www.onlinewebfonts.com/icon -->
<!DOCTYPE svg PUBLIC "-//W3C//DTD SVG 1.1//EN" "http://www.w3.org/Graphics/SVG/1.1/DTD/svg11.dtd">
<svg version="1.1" xmlns="http://www.w3.org/2000/svg" xmlns:xlink="http://www.w3.org/1999/xlink" x="0px" y="0px" viewBox="0 0 1000 1000" enable-background="new 0 0 1000 1000" xml:space="preserve">
<metadata> Svg Vector Icons : http://www.onlinewebfonts.com/icon </metadata>
    <g><path d="M951.1,275c-25.9-25.9-56.9-38.9-93.1-38.9H462.3v-18.8c0-36.1-13-67.1-38.9-93c-25.9-25.9-56.9-38.9-93.1-38.9H141.9c-36.1,0-67.1,13-93.1,38.9C23,150.2,10,181.2,10,217.3v565.4c0,36.1,13,67.1,38.9,93c25.9,25.9,56.9,38.9,93.1,38.9h716.2c36.1,0,67.1-13,93.1-38.9c25.9-25.9,38.9-56.9,38.9-93V368.1C990,332,977.1,300.9,951.1,275z M914.6,782.7c0,15.7-5.5,29.1-16.5,40.1c-11,11-24.3,16.5-40.1,16.5H141.9c-15.7,0-29.1-5.5-40-16.5s-16.5-24.4-16.5-40.1V217.3c0-15.7,5.5-29.1,16.5-40c11-11,24.3-16.5,40-16.5h188.5c15.7,0,29.1,5.5,40.1,16.5c11,11,16.5,24.3,16.5,40V255c0,15.7,5.5,29.1,16.5,40c11,11,24.3,16.5,40,16.5h414.6c15.7,0,29.1,5.5,40.1,16.5c11,11,16.5,24.3,16.5,40V782.7z"/></g>
</svg>
